<svg height="3198" width="720" xmlns="http://www.w3.org/2000/svg">
<rect height="3198" fill="#555" width="720"></rect>
<text fill="#7f7" font-family="Courier New" font-size="12" xml:space="preserve">
<tspan x="10" y="26">40 megabytes installed</tspan>
<tspan x="10" y="42"></tspan>
<tspan x="10" y="58">node_modules</tspan>
<tspan x="10" y="74">└─┬ webpack-spritesmith@0.3.3 </tspan>
<tspan x="10" y="90">  ├── async@2.3.0 </tspan>
<tspan x="10" y="106">  ├─┬ gaze@1.1.2 </tspan>
<tspan x="10" y="122">  │ └─┬ globule@1.1.0 </tspan>
<tspan x="10" y="138">  │   └── lodash@4.16.6 </tspan>
<tspan x="10" y="154">  ├─┬ glob@7.1.1 </tspan>
<tspan x="10" y="170">  │ ├── fs.realpath@1.0.0 </tspan>
<tspan x="10" y="186">  │ ├─┬ inflight@1.0.6 </tspan>
<tspan x="10" y="202">  │ │ └── wrappy@1.0.2 </tspan>
<tspan x="10" y="218">  │ ├── inherits@2.0.3 </tspan>
<tspan x="10" y="234">  │ ├─┬ minimatch@3.0.3 </tspan>
<tspan x="10" y="250">  │ │ └─┬ brace-expansion@1.1.7 </tspan>
<tspan x="10" y="266">  │ │   ├── balanced-match@0.4.2 </tspan>
<tspan x="10" y="282">  │ │   └── concat-map@0.0.1 </tspan>
<tspan x="10" y="298">  │ ├── once@1.4.0 </tspan>
<tspan x="10" y="314">  │ └── path-is-absolute@1.0.1 </tspan>
<tspan x="10" y="330">  ├─┬ loader-utils@1.1.0 </tspan>
<tspan x="10" y="346">  │ ├── big.js@3.1.3 </tspan>
<tspan x="10" y="362">  │ ├── emojis-list@2.1.0 </tspan>
<tspan x="10" y="378">  │ └── json5@0.5.1 </tspan>
<tspan x="10" y="394">  ├── lodash@4.17.4 </tspan>
<tspan x="10" y="410">  ├─┬ mkdirp@0.5.1 </tspan>
<tspan x="10" y="426">  │ └── minimist@0.0.8 </tspan>
<tspan x="10" y="442">  ├─┬ spritesheet-templates@10.2.1 </tspan>
<tspan x="10" y="458">  │ ├─┬ handlebars@4.0.6 </tspan>
<tspan x="10" y="474">  │ │ ├── async@1.5.2 </tspan>
<tspan x="10" y="490">  │ │ ├─┬ optimist@0.6.1 </tspan>
<tspan x="10" y="506">  │ │ │ └── wordwrap@0.0.3 </tspan>
<tspan x="10" y="522">  │ │ ├─┬ source-map@0.4.4 </tspan>
<tspan x="10" y="538">  │ │ │ └── amdefine@1.0.1 </tspan>
<tspan x="10" y="554">  │ │ └─┬ uglify-js@2.8.22 </tspan>
<tspan x="10" y="570">  │ │   ├── source-map@0.5.6 </tspan>
<tspan x="10" y="586">  │ │   ├── uglify-to-browserify@1.0.2 </tspan>
<tspan x="10" y="602">  │ │   └─┬ yargs@3.10.0 </tspan>
<tspan x="10" y="618">  │ │     ├── camelcase@1.2.1 </tspan>
<tspan x="10" y="634">  │ │     ├─┬ cliui@2.1.0 </tspan>
<tspan x="10" y="650">  │ │     │ ├─┬ center-align@0.1.3 </tspan>
<tspan x="10" y="666">  │ │     │ │ ├─┬ align-text@0.1.4 </tspan>
<tspan x="10" y="682">  │ │     │ │ │ ├── kind-of@3.1.0 </tspan>
<tspan x="10" y="698">  │ │     │ │ │ ├── longest@1.0.1 </tspan>
<tspan x="10" y="714">  │ │     │ │ │ └── repeat-string@1.6.1 </tspan>
<tspan x="10" y="730">  │ │     │ │ └── lazy-cache@1.0.4 </tspan>
<tspan x="10" y="746">  │ │     │ ├── right-align@0.1.3 </tspan>
<tspan x="10" y="762">  │ │     │ └── wordwrap@0.0.2 </tspan>
<tspan x="10" y="778">  │ │     ├── decamelize@1.2.0 </tspan>
<tspan x="10" y="794">  │ │     └── window-size@0.1.0 </tspan>
<tspan x="10" y="810">  │ ├── handlebars-layouts@1.1.0 </tspan>
<tspan x="10" y="826">  │ ├── json-content-demux@0.1.3 </tspan>
<tspan x="10" y="842">  │ ├── underscore@1.4.4 </tspan>
<tspan x="10" y="858">  │ └── underscore.string@3.0.3 </tspan>
<tspan x="10" y="874">  └─┬ spritesmith@3.1.1 </tspan>
<tspan x="10" y="890">    ├─┬ concat-stream@1.5.2 </tspan>
<tspan x="10" y="906">    │ ├─┬ readable-stream@2.0.6 </tspan>
<tspan x="10" y="922">    │ │ ├── core-util-is@1.0.2 </tspan>
<tspan x="10" y="938">    │ │ ├── isarray@1.0.0 </tspan>
<tspan x="10" y="954">    │ │ ├── process-nextick-args@1.0.7 </tspan>
<tspan x="10" y="970">    │ │ ├── string_decoder@0.10.31 </tspan>
<tspan x="10" y="986">    │ │ └── util-deprecate@1.0.2 </tspan>
<tspan x="10" y="1002">    │ └── typedarray@0.0.6 </tspan>
<tspan x="10" y="1018">    ├─┬ layout@2.2.0 </tspan>
<tspan x="10" y="1034">    │ └── bin-pack@1.0.2 </tspan>
<tspan x="10" y="1050">    ├─┬ pixelsmith@2.1.1 </tspan>
<tspan x="10" y="1066">    │ ├── async@0.9.2 </tspan>
<tspan x="10" y="1082">    │ ├─┬ get-pixels@3.3.0 </tspan>
<tspan x="10" y="1098">    │ │ ├── data-uri-to-buffer@0.0.3 </tspan>
<tspan x="10" y="1114">    │ │ ├── jpeg-js@0.1.2 </tspan>
<tspan x="10" y="1130">    │ │ ├─┬ ndarray-pack@1.2.1 </tspan>
<tspan x="10" y="1146">    │ │ │ └─┬ cwise-compiler@1.1.2 </tspan>
<tspan x="10" y="1162">    │ │ │   └── uniq@1.0.1 </tspan>
<tspan x="10" y="1178">    │ │ ├── node-bitmap@0.0.1 </tspan>
<tspan x="10" y="1194">    │ │ ├── omggif@1.0.8 </tspan>
<tspan x="10" y="1210">    │ │ ├── parse-data-uri@0.2.0 </tspan>
<tspan x="10" y="1226">    │ │ ├── pngjs@2.3.1 </tspan>
<tspan x="10" y="1242">    │ │ ├─┬ request@2.81.0 </tspan>
<tspan x="10" y="1258">    │ │ │ ├── aws-sign2@0.6.0 </tspan>
<tspan x="10" y="1274">    │ │ │ ├── aws4@1.6.0 </tspan>
<tspan x="10" y="1290">    │ │ │ ├── caseless@0.12.0 </tspan>
<tspan x="10" y="1306">    │ │ │ ├─┬ combined-stream@1.0.5 </tspan>
<tspan x="10" y="1322">    │ │ │ │ └── delayed-stream@1.0.0 </tspan>
<tspan x="10" y="1338">    │ │ │ ├── extend@3.0.0 </tspan>
<tspan x="10" y="1354">    │ │ │ ├── forever-agent@0.6.1 </tspan>
<tspan x="10" y="1370">    │ │ │ ├─┬ form-data@2.1.4 </tspan>
<tspan x="10" y="1386">    │ │ │ │ └── asynckit@0.4.0 </tspan>
<tspan x="10" y="1402">    │ │ │ ├─┬ har-validator@4.2.1 </tspan>
<tspan x="10" y="1418">    │ │ │ │ ├─┬ ajv@4.11.7 </tspan>
<tspan x="10" y="1434">    │ │ │ │ │ ├── co@4.6.0 </tspan>
<tspan x="10" y="1450">    │ │ │ │ │ └─┬ json-stable-stringify@1.0.1 </tspan>
<tspan x="10" y="1466">    │ │ │ │ │   └── jsonify@0.0.0 </tspan>
<tspan x="10" y="1482">    │ │ │ │ └── har-schema@1.0.5 </tspan>
<tspan x="10" y="1498">    │ │ │ ├─┬ hawk@3.1.3 </tspan>
<tspan x="10" y="1514">    │ │ │ │ ├── boom@2.10.1 </tspan>
<tspan x="10" y="1530">    │ │ │ │ ├── cryptiles@2.0.5 </tspan>
<tspan x="10" y="1546">    │ │ │ │ ├── hoek@2.16.3 </tspan>
<tspan x="10" y="1562">    │ │ │ │ └── sntp@1.0.9 </tspan>
<tspan x="10" y="1578">    │ │ │ ├─┬ http-signature@1.1.1 </tspan>
<tspan x="10" y="1594">    │ │ │ │ ├── assert-plus@0.2.0 </tspan>
<tspan x="10" y="1610">    │ │ │ │ ├─┬ jsprim@1.4.0 </tspan>
<tspan x="10" y="1626">    │ │ │ │ │ ├── assert-plus@1.0.0 </tspan>
<tspan x="10" y="1642">    │ │ │ │ │ ├── extsprintf@1.0.2 </tspan>
<tspan x="10" y="1658">    │ │ │ │ │ ├── json-schema@0.2.3 </tspan>
<tspan x="10" y="1674">    │ │ │ │ │ └── verror@1.3.6 </tspan>
<tspan x="10" y="1690">    │ │ │ │ └─┬ sshpk@1.13.0 </tspan>
<tspan x="10" y="1706">    │ │ │ │   ├── asn1@0.2.3 </tspan>
<tspan x="10" y="1722">    │ │ │ │   ├── assert-plus@1.0.0 </tspan>
<tspan x="10" y="1738">    │ │ │ │   ├── bcrypt-pbkdf@1.0.1 </tspan>
<tspan x="10" y="1754">    │ │ │ │   ├─┬ dashdash@1.14.1 </tspan>
<tspan x="10" y="1770">    │ │ │ │   │ └── assert-plus@1.0.0 </tspan>
<tspan x="10" y="1786">    │ │ │ │   ├── ecc-jsbn@0.1.1 </tspan>
<tspan x="10" y="1802">    │ │ │ │   ├─┬ getpass@0.1.6 </tspan>
<tspan x="10" y="1818">    │ │ │ │   │ └── assert-plus@1.0.0 </tspan>
<tspan x="10" y="1834">    │ │ │ │   ├── jodid25519@1.0.2 </tspan>
<tspan x="10" y="1850">    │ │ │ │   ├── jsbn@0.1.1 </tspan>
<tspan x="10" y="1866">    │ │ │ │   └── tweetnacl@0.14.5 </tspan>
<tspan x="10" y="1882">    │ │ │ ├── is-typedarray@1.0.0 </tspan>
<tspan x="10" y="1898">    │ │ │ ├── isstream@0.1.2 </tspan>
<tspan x="10" y="1914">    │ │ │ ├── json-stringify-safe@5.0.1 </tspan>
<tspan x="10" y="1930">    │ │ │ ├── oauth-sign@0.8.2 </tspan>
<tspan x="10" y="1946">    │ │ │ ├── performance-now@0.2.0 </tspan>
<tspan x="10" y="1962">    │ │ │ ├── qs@6.4.0 </tspan>
<tspan x="10" y="1978">    │ │ │ ├── safe-buffer@5.0.1 </tspan>
<tspan x="10" y="1994">    │ │ │ ├── stringstream@0.0.5 </tspan>
<tspan x="10" y="2010">    │ │ │ ├─┬ tough-cookie@2.3.2 </tspan>
<tspan x="10" y="2026">    │ │ │ │ └── punycode@1.4.1 </tspan>
<tspan x="10" y="2042">    │ │ │ ├── tunnel-agent@0.6.0 </tspan>
<tspan x="10" y="2058">    │ │ │ └── uuid@3.0.1 </tspan>
<tspan x="10" y="2074">    │ │ └── through@2.3.8 </tspan>
<tspan x="10" y="2090">    │ ├─┬ mime-types@2.1.15 </tspan>
<tspan x="10" y="2106">    │ │ └── mime-db@1.27.0 </tspan>
<tspan x="10" y="2122">    │ ├─┬ ndarray@1.0.18 </tspan>
<tspan x="10" y="2138">    │ │ ├── iota-array@1.0.0 </tspan>
<tspan x="10" y="2154">    │ │ └── is-buffer@1.1.5 </tspan>
<tspan x="10" y="2170">    │ ├─┬ ndarray-fill@1.0.2 </tspan>
<tspan x="10" y="2186">    │ │ └─┬ cwise@1.0.10 </tspan>
<tspan x="10" y="2202">    │ │   ├─┬ cwise-parser@1.0.3 </tspan>
<tspan x="10" y="2218">    │ │   │ └── esprima@1.2.5 </tspan>
<tspan x="10" y="2234">    │ │   └─┬ static-module@1.3.1 </tspan>
<tspan x="10" y="2250">    │ │     ├─┬ concat-stream@1.4.10 </tspan>
<tspan x="10" y="2266">    │ │     │ └── readable-stream@1.1.14 </tspan>
<tspan x="10" y="2282">    │ │     ├─┬ duplexer2@0.0.2 </tspan>
<tspan x="10" y="2298">    │ │     │ └─┬ readable-stream@1.1.14 </tspan>
<tspan x="10" y="2314">    │ │     │   └── isarray@0.0.1 </tspan>
<tspan x="10" y="2330">    │ │     ├─┬ escodegen@1.3.3 </tspan>
<tspan x="10" y="2346">    │ │     │ ├── esprima@1.1.1 </tspan>
<tspan x="10" y="2362">    │ │     │ ├── estraverse@1.5.1 </tspan>
<tspan x="10" y="2378">    │ │     │ ├── esutils@1.0.0 </tspan>
<tspan x="10" y="2394">    │ │     │ └── source-map@0.1.43 </tspan>
<tspan x="10" y="2410">    │ │     ├─┬ falafel@1.2.0 </tspan>
<tspan x="10" y="2426">    │ │     │ ├── acorn@1.2.2 </tspan>
<tspan x="10" y="2442">    │ │     │ ├── foreach@2.0.5 </tspan>
<tspan x="10" y="2458">    │ │     │ ├── isarray@0.0.1 </tspan>
<tspan x="10" y="2474">    │ │     │ └── object-keys@1.0.11 </tspan>
<tspan x="10" y="2490">    │ │     ├─┬ has@1.0.1 </tspan>
<tspan x="10" y="2506">    │ │     │ └── function-bind@1.1.0 </tspan>
<tspan x="10" y="2522">    │ │     ├── object-inspect@0.4.0 </tspan>
<tspan x="10" y="2538">    │ │     ├─┬ quote-stream@0.0.0 </tspan>
<tspan x="10" y="2554">    │ │     │ └─┬ through2@0.4.2 </tspan>
<tspan x="10" y="2570">    │ │     │   └─┬ readable-stream@1.0.34 </tspan>
<tspan x="10" y="2586">    │ │     │     └── isarray@0.0.1 </tspan>
<tspan x="10" y="2602">    │ │     ├─┬ readable-stream@1.0.34 </tspan>
<tspan x="10" y="2618">    │ │     │ └── isarray@0.0.1 </tspan>
<tspan x="10" y="2634">    │ │     ├── shallow-copy@0.0.1 </tspan>
<tspan x="10" y="2650">    │ │     ├─┬ static-eval@0.2.4 </tspan>
<tspan x="10" y="2666">    │ │     │ └─┬ escodegen@0.0.28 </tspan>
<tspan x="10" y="2682">    │ │     │   ├── esprima@1.0.4 </tspan>
<tspan x="10" y="2698">    │ │     │   └── estraverse@1.3.2 </tspan>
<tspan x="10" y="2714">    │ │     └─┬ through2@0.4.2 </tspan>
<tspan x="10" y="2730">    │ │       └─┬ xtend@2.1.2 </tspan>
<tspan x="10" y="2746">    │ │         └── object-keys@0.4.0 </tspan>
<tspan x="10" y="2762">    │ ├── obj-extend@0.1.0 </tspan>
<tspan x="10" y="2778">    │ ├─┬ save-pixels@2.3.4 </tspan>
<tspan x="10" y="2794">    │ │ ├─┬ contentstream@1.0.0 </tspan>
<tspan x="10" y="2810">    │ │ │ └─┬ readable-stream@1.0.34 </tspan>
<tspan x="10" y="2826">    │ │ │   └── isarray@0.0.1 </tspan>
<tspan x="10" y="2842">    │ │ ├─┬ gif-encoder@0.4.3 </tspan>
<tspan x="10" y="2858">    │ │ │ └─┬ readable-stream@1.1.14 </tspan>
<tspan x="10" y="2874">    │ │ │   └── isarray@0.0.1 </tspan>
<tspan x="10" y="2890">    │ │ ├── jpeg-js@0.0.4 </tspan>
<tspan x="10" y="2906">    │ │ ├── ndarray-ops@1.2.2 </tspan>
<tspan x="10" y="2922">    │ │ └── pngjs-nozlib@1.0.0 </tspan>
<tspan x="10" y="2938">    │ └─┬ vinyl-file@1.3.0 </tspan>
<tspan x="10" y="2954">    │   ├── graceful-fs@4.1.11 </tspan>
<tspan x="10" y="2970">    │   ├─┬ strip-bom@2.0.0 </tspan>
<tspan x="10" y="2986">    │   │ └── is-utf8@0.2.1 </tspan>
<tspan x="10" y="3002">    │   ├─┬ strip-bom-stream@1.0.0 </tspan>
<tspan x="10" y="3018">    │   │ └── first-chunk-stream@1.0.0 </tspan>
<tspan x="10" y="3034">    │   └─┬ vinyl@1.2.0 </tspan>
<tspan x="10" y="3050">    │     ├── clone@1.0.2 </tspan>
<tspan x="10" y="3066">    │     ├── clone-stats@0.0.1 </tspan>
<tspan x="10" y="3082">    │     └── replace-ext@0.0.1 </tspan>
<tspan x="10" y="3098">    ├── semver@5.0.3 </tspan>
<tspan x="10" y="3114">    └─┬ through2@2.0.3 </tspan>
<tspan x="10" y="3130">      ├─┬ readable-stream@2.2.9 </tspan>
<tspan x="10" y="3146">      │ ├── buffer-shims@1.0.0 </tspan>
<tspan x="10" y="3162">      │ └── string_decoder@1.0.0 </tspan>
<tspan x="10" y="3178">      └── xtend@4.0.1</tspan>
</text>
</svg>
